<svg width="16" height="18" viewBox="0 0 16 18" fill="none" xmlns="http://www.w3.org/2000/svg">
<path fill-rule="evenodd" clip-rule="evenodd" d="M9 15V8.1001C9 7.54781 8.55228 7.1001 8 7.1001H2.6875C2.3078 7.1001 2 7.4079 2 7.7876V15C2 15.5523 2.44772 16 3 16H8C8.55228 16 9 15.5523 9 15ZM11 8.1001V15C11 16.6569 9.65685 18 8 18H3C1.34315 18 1.05287e-07 16.6569 8.56185e-08 15L0 7.7876C-1.76197e-08 6.30333 1.20323 5.1001 2.6875 5.1001H8C9.65685 5.1001 11 6.44324 11 8.1001Z" fill="white"/>
<path fill-rule="evenodd" clip-rule="evenodd" d="M14 10V3C14 2.44772 13.5523 2 13 2H7.5C7.22386 2 7 2.22386 7 2.5H5C5 1.11929 6.11929 8.24247e-08 7.5 6.58852e-08L13 0C14.6569 -1.9847e-08 16 1.34315 16 3V10C16 11.6569 14.6569 13 13 13V11C13.5523 11 14 10.5523 14 10Z" fill="white"/>
<path fill-rule="evenodd" clip-rule="evenodd" d="M4 10C4 9.44771 4.44772 9 5 9H6C6.55228 9 7 9.44771 7 10C7 10.5523 6.55228 11 6 11H5C4.44772 11 4 10.5523 4 10Z" fill="white"/>
<path fill-rule="evenodd" clip-rule="evenodd" d="M4 13C4 12.4477 4.44772 12 5 12H6C6.55228 12 7 12.4477 7 13C7 13.5523 6.55228 14 6 14H5C4.44772 14 4 13.5523 4 13Z" fill="white"/>
</svg>
