<svg width="15" height="15" viewBox="0 0 15 15" fill="none" xmlns="http://www.w3.org/2000/svg">
<path fill-rule="evenodd" clip-rule="evenodd" d="M10.2919 1.37195C10.7877 0.875731 11.6419 0.87659 12.136 1.37109L13.9182 3.15476C14.1643 3.40108 14.3 3.72888 14.3 4.07704C14.3 4.4252 14.1643 4.75298 13.9182 4.99929L5.86123 12.9911C5.81167 13.0403 5.75088 13.0757 5.68439 13.0949L1.52567 14.2842C1.48876 14.2946 1.45032 14.2999 1.41245 14.2999C1.30452 14.2999 1.19934 14.2576 1.12085 14.179C1.12085 14.179 1.12086 14.179 1.12085 14.179C1.01504 14.0731 0.974721 13.9181 1.01583 13.7741L2.20393 9.61212C2.22313 9.5457 2.25856 9.48451 2.30773 9.4349L10.2919 1.37195ZM10.4551 1.53497C10.455 1.53503 10.4551 1.53491 10.4551 1.53497L2.47161 9.59718C2.45006 9.61892 2.4343 9.64579 2.42565 9.67565C2.42563 9.6757 2.42566 9.6756 2.42565 9.67565L1.23761 13.8374C1.21953 13.9007 1.23724 13.9692 1.28401 14.016C1.31864 14.0507 1.36489 14.0693 1.41245 14.0693C1.42904 14.0693 1.44596 14.067 1.46235 14.0624C1.46242 14.0624 1.46227 14.0624 1.46235 14.0624L5.62032 12.8734C5.62034 12.8734 5.62031 12.8734 5.62032 12.8734C5.65012 12.8647 5.67696 12.849 5.69872 12.8274L13.755 4.83627C13.7551 4.83622 13.755 4.83632 13.755 4.83627C13.9578 4.63322 14.0694 4.36398 14.0694 4.07704C14.0694 3.79002 13.9579 3.52085 13.755 3.31778L11.9729 1.5341C11.5689 1.12983 10.8608 1.12908 10.4551 1.53497ZM10.8759 1.96495C10.8759 1.96501 10.876 1.96489 10.8759 1.96495L9.65995 3.19185L12.1081 5.64002L13.3359 4.42319C13.336 4.42314 13.3359 4.42324 13.3359 4.42319C13.4255 4.33352 13.4753 4.2137 13.4753 4.08559C13.4753 3.95753 13.4257 3.83776 13.3351 3.74712L11.5529 1.96495C11.3734 1.78552 11.0554 1.78565 10.8759 1.96495ZM10.7128 1.80186C10.9824 1.5323 11.4464 1.5323 11.716 1.80186L13.4981 3.58404C13.632 3.7179 13.706 3.89631 13.706 4.08559C13.706 4.27474 13.6321 4.45319 13.499 4.58628L12.1074 5.96546L9.33451 3.19258L10.7128 1.80186ZM9.07875 3.45067L10.3356 4.70748L4.43246 10.6106L3.95131 9.64799C3.92033 9.58622 3.85748 9.54743 3.78868 9.54743H3.03636L9.07875 3.45067ZM9.07948 3.77757L3.58965 9.31679H3.78868C3.94498 9.31679 4.08748 9.40504 4.15747 9.5446L4.49567 10.2212L10.0094 4.70749L9.07948 3.77757ZM10.5925 4.96444L11.8493 6.22125L5.75257 12.2636V11.5113C5.75257 11.4425 5.71378 11.3797 5.65201 11.3487L4.68938 10.8675L10.5925 4.96444ZM5.07877 10.8043L5.75527 11.1425C5.89482 11.2125 5.98321 11.355 5.98321 11.5113V11.7103L11.5224 6.22052L10.5925 5.29061L5.07877 10.8043ZM2.73748 9.91084H3.6763L4.22013 10.9985C4.23768 11.0336 4.26628 11.0623 4.30139 11.0798L5.3891 11.6236V12.4755H5.28996L5.30549 12.5864L3.8191 13.011L2.28897 11.4809L2.73748 9.91084ZM5.15847 12.3885V11.7662L4.19829 11.2861C4.19829 11.2861 4.1983 11.2861 4.19829 11.2861C4.11853 11.2462 4.05371 11.1814 4.01384 11.1017C4.01384 11.1017 4.01385 11.1017 4.01384 11.1017L3.53376 10.1415H2.91145L2.54801 11.4137L3.88623 12.752L5.15847 12.3885ZM2.17479 11.8806L3.41941 13.1252L1.67704 13.623L2.17479 11.8806ZM2.28888 12.3208L2.01283 13.2872L2.97915 13.0111L2.28888 12.3208Z" fill="#999999"/>
<path d="M1.12085 14.179C1.19934 14.2576 1.30452 14.2999 1.41245 14.2999C1.45032 14.2999 1.48876 14.2946 1.52567 14.2842L5.68439 13.0949C5.75088 13.0757 5.81167 13.0403 5.86123 12.9911L13.9182 4.99929C14.1643 4.75298 14.3 4.4252 14.3 4.07704C14.3 3.72888 14.1643 3.40108 13.9182 3.15476L12.136 1.37109C11.6419 0.87659 10.7877 0.875731 10.2919 1.37195L2.30773 9.4349M1.12085 14.179L1.19963 14.1003M1.12085 14.179C1.12086 14.179 1.12085 14.179 1.12085 14.179ZM1.12085 14.179C1.01504 14.0731 0.974721 13.9181 1.01583 13.7741M1.01583 13.7741L1.12133 13.8042L1.12672 13.8057M1.01583 13.7741L2.20393 9.61212C2.22313 9.5457 2.25856 9.48451 2.30773 9.4349M2.30773 9.4349L2.38963 9.516M10.4551 1.53497C10.4551 1.53491 10.455 1.53503 10.4551 1.53497ZM10.4551 1.53497L2.47161 9.59718C2.45006 9.61892 2.4343 9.64579 2.42565 9.67565M10.4551 1.53497C10.8608 1.12908 11.5689 1.12983 11.9729 1.5341M2.42565 9.67565C2.42566 9.6756 2.42563 9.6757 2.42565 9.67565ZM2.42565 9.67565L1.23761 13.8374C1.21953 13.9007 1.23724 13.9692 1.28401 14.016C1.31864 14.0507 1.36489 14.0693 1.41245 14.0693C1.42904 14.0693 1.44596 14.067 1.46235 14.0624M1.46235 14.0624C1.46227 14.0624 1.46242 14.0624 1.46235 14.0624ZM1.46235 14.0624L5.62032 12.8734M5.62032 12.8734C5.62031 12.8734 5.62034 12.8734 5.62032 12.8734ZM5.62032 12.8734C5.65012 12.8647 5.67696 12.849 5.69872 12.8274L13.755 4.83627M13.755 4.83627C13.755 4.83632 13.7551 4.83622 13.755 4.83627ZM13.755 4.83627C13.9578 4.63322 14.0694 4.36398 14.0694 4.07704C14.0694 3.79002 13.9579 3.52085 13.755 3.31778M13.755 3.31778L13.8366 3.23627M13.755 3.31778L11.9729 1.5341M11.9729 1.5341L12.0544 1.45259M10.8759 1.96495C10.876 1.96489 10.8759 1.96501 10.8759 1.96495ZM10.8759 1.96495L9.65995 3.19185L12.1081 5.64002L13.3359 4.42319M10.8759 1.96495C11.0554 1.78565 11.3734 1.78552 11.5529 1.96495L13.3351 3.74712C13.4257 3.83776 13.4753 3.95753 13.4753 4.08559C13.4753 4.2137 13.4255 4.33352 13.3359 4.42319M13.3359 4.42319C13.3359 4.42324 13.336 4.42314 13.3359 4.42319ZM4.19829 11.2861L5.15847 11.7662V12.3885L3.88623 12.752L2.54801 11.4137L2.91145 10.1415H3.53376L4.01384 11.1017M4.19829 11.2861C4.1983 11.2861 4.19829 11.2861 4.19829 11.2861ZM4.19829 11.2861C4.11853 11.2462 4.05371 11.1814 4.01384 11.1017M4.01384 11.1017C4.01385 11.1017 4.01384 11.1017 4.01384 11.1017ZM11.716 1.80186C11.4464 1.5323 10.9824 1.5323 10.7128 1.80186L9.33451 3.19258L12.1074 5.96546L13.499 4.58628C13.6321 4.45319 13.706 4.27474 13.706 4.08559C13.706 3.89631 13.632 3.7179 13.4981 3.58404L11.716 1.80186ZM9.07875 3.45067L10.3356 4.70748L4.43246 10.6106L3.95131 9.64799C3.92033 9.58622 3.85748 9.54743 3.78868 9.54743H3.03636L9.07875 3.45067ZM3.58965 9.31679L9.07948 3.77757L10.0094 4.70749L4.49567 10.2212L4.15747 9.5446C4.08748 9.40504 3.94498 9.31679 3.78868 9.31679H3.58965ZM10.5925 4.96444L11.8493 6.22125L5.75257 12.2636V11.5113C5.75257 11.4425 5.71378 11.3797 5.65201 11.3487L4.68938 10.8675L10.5925 4.96444ZM5.75527 11.1425C5.89482 11.2125 5.98321 11.355 5.98321 11.5113V11.7103L11.5224 6.22052L10.5925 5.29061L5.07877 10.8043L5.75527 11.1425ZM2.73748 9.91084H3.6763L4.22013 10.9985C4.23768 11.0336 4.26628 11.0623 4.30139 11.0798L5.3891 11.6236V12.4755H5.28996L5.30549 12.5864L3.8191 13.011L2.28897 11.4809L2.73748 9.91084ZM2.17479 11.8806L3.41941 13.1252L1.67704 13.623L2.17479 11.8806ZM2.01283 13.2872L2.28888 12.3208L2.97915 13.0111L2.01283 13.2872Z" stroke="#999999" stroke-width="0.4"/>
</svg>
