<svg width="12" height="12" viewBox="0 0 12 12" fill="none" xmlns="http://www.w3.org/2000/svg">
<path d="M2.45641 8.53791C2.67178 8.53865 2.88516 8.4966 3.08416 8.41421C3.28316 8.33182 3.46381 8.21072 3.61563 8.05795L5.28895 6.38463C5.34833 6.32801 5.42723 6.29642 5.50928 6.29642C5.59133 6.29642 5.67022 6.32801 5.72961 6.38463L7.40948 8.06484C7.56154 8.21743 7.74235 8.33836 7.94144 8.42063C8.14054 8.50289 8.35397 8.54487 8.56939 8.54412H8.89937L6.77884 10.6636C6.62155 10.8213 6.43471 10.9463 6.22902 11.0317C6.02333 11.117 5.80282 11.1609 5.58013 11.1609C5.35744 11.1609 5.13694 11.117 4.93125 11.0317C4.72556 10.9463 4.53872 10.8213 4.38143 10.6636L2.25228 8.53791H2.45641ZM8.56939 2.61663C8.35406 2.61598 8.14073 2.65804 7.94175 2.74036C7.74277 2.82269 7.5621 2.94365 7.41017 3.09625L5.73271 4.77716C5.67427 4.83546 5.5951 4.86821 5.51255 4.86821C5.43001 4.86821 5.35083 4.83546 5.2924 4.77716L3.61908 3.10349C3.46728 2.95069 3.28663 2.82957 3.08763 2.74718C2.88863 2.66478 2.67524 2.62275 2.45985 2.62353H2.25228L4.38143 0.496449C4.69937 0.178575 5.13055 0 5.58013 0C6.02972 0 6.4609 0.178575 6.77884 0.496449L8.89937 2.61629L8.56939 2.61663Z" fill="#333333"/>
<path d="M0.496735 4.38166L1.76285 3.11521H2.45624C2.76036 3.11555 3.05171 3.23589 3.26756 3.44966L4.94088 5.12298C5.01544 5.19796 5.10409 5.25746 5.20173 5.29806C5.29936 5.33866 5.40406 5.35957 5.5098 5.35957C5.61554 5.35957 5.72024 5.33866 5.81788 5.29806C5.91551 5.25746 6.00416 5.19796 6.07873 5.12298L7.7586 3.44311C7.97442 3.22911 8.26598 3.10892 8.56992 3.10865H9.39192L10.6636 4.38028C10.9814 4.69822 11.16 5.1294 11.16 5.57898C11.16 6.02857 10.9814 6.45975 10.6636 6.77769L9.39192 8.04931H8.56923C8.26546 8.04931 7.97375 7.92863 7.75791 7.71486L6.07838 6.03429C5.92513 5.88793 5.72137 5.80626 5.50946 5.80626C5.29755 5.80626 5.09379 5.88793 4.94054 6.03429L3.26721 7.70762C3.05137 7.92139 2.76001 8.04207 2.4559 8.04207H1.76285L0.496735 6.77907C0.339257 6.62168 0.214333 6.43482 0.129101 6.22914C0.0438693 6.02346 0 5.803 0 5.58036C0 5.35772 0.0438693 5.13727 0.129101 4.93159C0.214333 4.72591 0.339257 4.53904 0.496735 4.38166Z" fill="#333333"/>
</svg>
