<svg width="11" height="16" viewBox="0 0 11 16" fill="none" xmlns="http://www.w3.org/2000/svg">
<path fill-rule="evenodd" clip-rule="evenodd" d="M10.2 2.03158H8V1.01542C8 0.245189 7.75468 0 7.00003 0H3.99997C3.30779 0 2.99999 0.34044 2.99999 1.01542V2.03163H0.800017C0.357854 2.03163 0 2.37241 0 2.79352C0 3.21469 0.357854 3.55547 0.800017 3.55547H10.2C10.6421 3.55547 11 3.21469 11 2.79352C11 2.37241 10.6421 2.03158 10.2 2.03158ZM2.89951 15.2308C1.74946 15.2308 1.52603 14.197 1.52603 14.197L0.499512 4.06155H10.4995L9.47296 14.197C9.47296 14.197 9.24953 15.2308 8.09954 15.2308H2.89951ZM7.99986 5.07703C7.72369 5.07703 7.49987 5.30429 7.49987 5.58471L6.99988 13.2001C6.99988 13.4805 7.22375 13.7078 7.49987 13.7078C7.77598 13.7078 7.99986 13.4805 7.99986 13.2001L8.4999 5.58471C8.4999 5.30429 8.27603 5.07703 7.99986 5.07703ZM5.00049 5.58471C5.00049 5.30429 5.22436 5.07703 5.50048 5.07703C5.77665 5.07703 6.00047 5.30429 6.00047 5.58471V13.2001C6.00047 13.4805 5.77665 13.7078 5.50048 13.7078C5.22431 13.7078 5.00049 13.4805 5.00049 13.2001V5.58471ZM3.50022 5.58471C3.50022 5.30429 3.2764 5.07703 3.00023 5.07703C2.72412 5.07703 2.50024 5.30435 2.50024 5.58476L3.00023 13.2001C3.00023 13.4805 3.22411 13.7078 3.50022 13.7078C3.77639 13.7078 4.00027 13.4805 4.00027 13.2001L3.50022 5.58471ZM4.00012 2.03169H7.00012H7.00017V1.01547H4.00018L4.00012 2.03169Z" fill="#999999"/>
</svg>
